<svg xmlns="http://www.w3.org/2000/svg" width="400" height="100" viewBox="0 0 400 100" fill="none">
  <!-- Icon -->
  <rect x="0" y="0" width="100" height="100" rx="22" fill="#070708"/>
  <path d="M56.25 8.4c1.25 13.7-5.9 20.3-11.7 26.6C39.6 41 34.5 47.7 36.4 56.9 37.9 65.9 44.3 71.5 52.4 71.5c0-8.4 3.4-12.6 8.4-17.6 5.9-5.9 12.6-12.6 10.9-25.2C70.3 19.6 64.7 13.8 56.25 8.4Z" fill="#C7F33C"/>
  <path d="M39.9 56.9c-2.5 4.2-4.2 8.4-4.2 12.6 0 10.5 6.7 16.8 14.7 16.8s14.7-6.3 14.7-16.8c0-4.2-1.7-8.4-4.2-12.6-1.25 6.3-5 9.7-10.5 9.7S41.15 63.2 39.9 56.9Z" fill="#9BC92E"/>

  <!-- Text: Sendly -->
  <text x="120" y="62" font-family="-apple-system, BlinkMacSystemFont, 'Segoe UI', sans-serif" font-size="42" font-weight="900" letter-spacing="-1" fill="#070708">Sendly</text>
  <text x="316" y="62" font-family="-apple-system, BlinkMacSystemFont, 'Segoe UI', sans-serif" font-size="42" font-weight="900" letter-spacing="-1" fill="#C7F33C">.uz</text>
</svg>
