<svg xmlns="http://www.w3.org/2000/svg" width="512" height="512" viewBox="0 0 512 512" fill="none">
  <!-- Background -->
  <rect width="512" height="512" rx="110" fill="#070708"/>
  
  <!-- Flame top part -->
  <path d="M288 43c6.4 75-32 111.5-64.5 145.6C200 215 170 247 181 299c9.2 46.1 44.2 77.7 86 77.7
           c0-42.9 17.2-64.3 42.9-90 30-30 64.5-64.3 55.8-128.7
           C355.7 107 326.3 70.6 288 43Z" fill="#C7F33C"/>
  
  <!-- Flame bottom teardrop -->
  <path d="M203.7 299c-12.9 21.4-21.5 42.9-21.5 64.3c0 53.6 34.3 85.7 75 85.7
           s75-32.1 75-85.7c0-21.4-8.6-42.9-21.5-64.3
           c-6.4 32.1-25.7 49.3-53.5 49.3S210.1 331.1 203.7 299Z" fill="#9BC92E"/>
</svg>
